<?xml version="1.0" standalone="no"?><!DOCTYPE svg PUBLIC "-//W3C//DTD SVG 1.1//EN" "http://www.w3.org/Graphics/SVG/1.1/DTD/svg11.dtd"><svg t="1557366832587" class="icon" style="" viewBox="0 0 1024 1024" version="1.1" xmlns="http://www.w3.org/2000/svg" p-id="20935" xmlns:xlink="http://www.w3.org/1999/xlink" width="32" height="32"><defs><style type="text/css"></style></defs><path d="M450.8672 524.3904L218.112 398.5408c-4.7104-2.6624-9.9328-3.6864-14.6432-3.6864-16.7936 0-32.4608 14.6432-32.4608 35.1232V675.84c0 25.7024 13.1072 48.7424 34.6112 60.3136L438.272 862.0032c4.7104 2.6624 9.9328 4.1984 14.6432 4.1984 16.7936 0 32.4608-15.1552 32.4608-35.6352V584.704c0.1024-25.1904-13.0048-48.7424-34.5088-60.3136z m-17.8176 275.2512l-202.8544-109.568c-3.1744-2.048-6.8608-6.8608-6.8608-14.1312v-215.04l202.8544 109.568c4.1984 2.6624 6.8608 8.3968 6.8608 14.1312v215.04z m386.8672-404.7872c-4.7104 0-9.9328 1.024-14.6432 3.6864L572.5184 524.9024c-21.504 11.5712-34.6112 35.1232-34.6112 60.8256v244.8384c0 20.48 15.7696 35.6352 32.4608 35.6352 4.7104 0 9.9328-1.024 14.6432-3.6864l232.7552-126.3616c20.992-11.5712 34.6112-34.6112 34.6112-60.3136V429.9776c0.1024-20.3776-15.6672-35.1232-32.4608-35.1232z m-19.8656 280.576c0 7.3728-3.6864 12.5952-6.8608 14.1312L590.336 799.6416V585.728c0-7.3728 3.6864-12.5952 6.8608-14.1312l202.8544-110.592v214.4256z m-16.2816-334.5408c11.0592-5.7344 16.2816-15.7696 15.1552-25.1904 1.024-9.9328-4.1984-19.3536-15.1552-25.1904L546.816 166.8096c-10.4448-5.7344-22.528-8.3968-35.1232-8.3968-12.5952 0-24.6784 2.6624-35.6352 8.3968l-237.568 123.1872c-10.9568 5.7344-15.7696 15.7696-15.1552 25.7024-0.512 9.4208 4.1984 19.3536 15.1552 25.1904l236.9536 123.1872c10.4448 5.7344 23.04 8.3968 35.6352 8.3968h1.024c12.5952 0 24.6784-2.6624 35.6352-8.3968l236.032-123.1872z m-272.5888 79.1552c-4.1984 0-8.3968-1.024-11.5712-2.6624l-196.096-101.6832 196.096-102.1952c3.1744-1.536 7.3728-2.6624 12.0832-2.6624 4.1984 0 8.3968 1.024 11.5712 2.6624l196.096 102.1952-196.608 101.6832c-2.6624 1.6384-6.8608 2.6624-11.5712 2.6624z m0 0" p-id="20936"></path></svg>