<svg id="图层_1" data-name="图层 1" xmlns="http://www.w3.org/2000/svg" viewBox="0 0 32 32"><title>地形剖面分析</title><path d="M20.4,5.48A.64.64,0,0,0,20,5.32H6.35a1,1,0,0,0-1,1v18.8c0,.15,0,.31,0,.47a1,1,0,0,0,1,.92H25.49a1.11,1.11,0,0,0,.77-.25,1.09,1.09,0,0,0,.33-.87V11.92a.67.67,0,0,0-1.34,0v.59a2.4,2.4,0,0,0-1.08.21c-1.25.54-2.21,2.06-2.85,4.54-.29,1.15-.55,2.19-.77,3.11-.57,2.36-1,4.19-1.52,4.84H18.1a14.61,14.61,0,0,1-1.2-1.08,16.78,16.78,0,0,0-2.37-2,4.78,4.78,0,0,0-3.07-.92,5.34,5.34,0,0,0-3.82,2.31,7.56,7.56,0,0,0-.93,1.68V18.62a4.53,4.53,0,0,1,2.91-1.9c1.54-.14,2.91,1.11,3.9,2l.36.33a4,4,0,0,0,2.4,1.07,2,2,0,0,0,.91-.22,2.61,2.61,0,0,0,1.23-1.79,10.51,10.51,0,0,0,.09-3.63,13.84,13.84,0,0,1,.56-6.28,7,7,0,0,1,.77-1.55H20a.66.66,0,0,0,.49-.21A.7.7,0,0,0,20.63,6a.63.63,0,0,0,0-.19m4.65,7.75V25.21h-5c.07-.15.13-.29.18-.43a36,36,0,0,0,1.16-4.17l0-.18c.21-.87.45-1.85.73-2.92.68-2.66,1.6-3.56,2.25-3.85A1.36,1.36,0,0,1,25.25,13.55ZM7.82,25.21a4.87,4.87,0,0,1,3.73-3c1.74-.14,3.35,1.4,4.65,2.65l.34.33ZM16.36,6.66A13.81,13.81,0,0,0,15.48,8a10.9,10.9,0,0,0-1.15,3.16c0-.26,0-.52,0-.83-.17-1.43,1.08-3.22,1.45-3.7Zm1.13,8c.27,2.4,0,4-.77,4.39-.59.31-1.51-.14-2.16-.71L14.21,18a13,13,0,0,0-2-1.54,4.41,4.41,0,0,0-2.73-.73,4.82,4.82,0,0,0-2.82,1.42V14.73a1.65,1.65,0,0,1,.71-.87,2.48,2.48,0,0,1,1.89,0,9.12,9.12,0,0,1,1.15.69c1.14.75,2.44,1.6,3.45,1.6a1.35,1.35,0,0,0,.73-.2c.56-.35.76-1.09.61-2.26a8.6,8.6,0,0,1,1.13-5.15,11.81,11.81,0,0,1,1.27-1.88h1a9.45,9.45,0,0,0-.52,1.15A15,15,0,0,0,17.49,14.61ZM6.71,10.79A.66.66,0,0,1,7,10.64c.67-.2,1.86.29,3,1.26a5,5,0,0,0,2.81,1.43h0a1.35,1.35,0,0,0,.67-.16,1.51,1.51,0,0,0,.7-.93,7.56,7.56,0,0,0,0,1.58c.1.8,0,1.18-.14,1.27s-.33.13-1.15-.25A18.38,18.38,0,0,1,11,13.69a7.45,7.45,0,0,0-1.36-.79A3.36,3.36,0,0,0,6.92,13a1.59,1.59,0,0,0-.21.15Zm6.56-.31c.13,1.14-.06,1.68-.27,1.79s-.64.24-2.34-1.16C9.18,9.89,7.74,9.36,6.71,9.65V9c.36.1.8.21,1.29.3a8.33,8.33,0,0,0,1.61.18A2.89,2.89,0,0,0,11.44,9,3.87,3.87,0,0,0,12.9,6.66h1.59A6.38,6.38,0,0,0,13.27,10.48ZM10.81,8.19c-.74.59-2.85.14-4.1-.24V6.66h5.14A2.87,2.87,0,0,1,10.81,8.19Z"/><path d="M27,6.94H24.65V4.6a.67.67,0,0,0-1.34,0V6.94H21a.67.67,0,0,0,0,1.33h2.33v2.34a.67.67,0,0,0,1.34,0V8.27H27a.67.67,0,0,0,0-1.33Z"/></svg>