<?xml version="1.0" standalone="no"?><!DOCTYPE svg PUBLIC "-//W3C//DTD SVG 1.1//EN" "http://www.w3.org/Graphics/SVG/1.1/DTD/svg11.dtd"><svg t="1557366119156" class="icon" style="" viewBox="0 0 1183 1024" version="1.1" xmlns="http://www.w3.org/2000/svg" p-id="17233" xmlns:xlink="http://www.w3.org/1999/xlink" width="36.96875" height="32"><defs><style type="text/css"></style></defs><path d="M984.81517 766.122076l184.284567 184.89755c17.007612 16.11117 17.007612 43.482796 0.58818 59.902229-16.391087 17.039502-43.75917 17.631225-60.210491 0.591723l-185.514077-185.209357c-35.875433 29.809384-76.016941 54.456249-119.808 72.388651a462.621232 462.621232 0 0 1-179.139764 35.907322c-136.564042 0-266.725426-60.550644-355.540595-165.476983-44.715848-52.294865 23.12681-101.248443 74.216968-44.995765 72.392194 79.383031 173.980789 124.382339 281.323627 124.382339 52.011405 0 101.276789-10.332125 145.96429-28.884595 46.540623-19.144194 88.503363-47.132346 123.482353-82.107792l0.612983-0.616526c34.97899-35.283709 63.580125-77.221647 83.032581-124.070533 18.247751-44.099322 28.604678-93.669426 28.604679-145.684374 0-50.778353-10.07701-99.423668-28.012955-143.859598l-0.591724-1.824775c-18.860734-45.895751-46.845343-87.578574-80.896-121.965841l-2.133038-2.104692c-35.595516-34.97899-77.561799-63.551779-124.098879-82.444402-44.379239-19.144194-93.949343-29.164512-145.96429-29.164512-155.399972 0-289.210907 94.874131-348.241495 227.760277-7.2991 15.834796-21.893758 25.263391-39.241523 25.263391h-0.279916c-15.214727 0-27.672803-7.323903-35.900236-19.452457-8.199087-12.489965-9.123875-27.088166-3.033024-41.094643C271.919834 113.150228 439.806228 0 625.015585 0c62.928166 0 123.482353 12.773426 179.143308 35.871889 57.177467 23.438616 108.855806 58.417606 151.438616 100.972069l2.412955 2.161385c41.99463 42.859183 75.453564 93.361163 98.863834 149.33038l0.899986 2.412955c22.510284 54.768055 34.691986 113.738408 34.691986 176.393744 0 63.243516-12.798228 123.482353-35.591972 178.218519a471.536055 471.536055 0 0 1-72.055585 120.761135zM25.571654 586.666962c-14.286394 0-25.571654-11.281716-25.571654-25.851571 0-14.006478 11.28526-25.851571 25.571654-25.851571h189.16717l113.150228-190.400221a25.582284 25.582284 0 0 1 35.283709-9.123876c3.64955 2.161384 6.370768 5.166062 8.503806 8.532152l110.092402 176.702007 54.736166-57.793993c9.743945-10.020318 26.163377-10.640388 36.495502-0.591723 2.133038 2.444844 4.266076 4.857799 5.499128 7.91917l63.831695 128.616526 78.794851-333.614949c3.337744-14.010021 17.319419-22.205564 31.325897-18.86782 4.545993 1.208249 8.503806 3.34483 11.845093 6.714464l116.491516 117.976139c9.708512 9.715599 9.708512 26.163377-0.308263 36.520304-10.023862 9.432138-26.47164 9.432138-36.495502-0.648415l-83.620761-84.542007-84.88216 357.358284c-1.512969 7.2991-6.679031 13.981675-13.694671 16.731238-12.776969 7.01564-27.963349 1.824775-34.022311-10.916761l-79.074768-160.31092-51.706685 54.11964c-1.824775 2.161384-3.677896 3.957813-6.094395 4.914491a25.561024 25.561024 0 0 1-35.280166-7.915626l-105.234602-168.789924-98.555571 165.416747c-4.209384 8.532152-12.741536 13.698215-22.481938 13.698215H25.571654z" fill="#000000" p-id="17234"></path></svg>