<svg id="图层_1" data-name="图层 1" xmlns="http://www.w3.org/2000/svg" viewBox="0 0 32 32"><title>高度测量</title><path d="M13.7,5.93,10.92,10a.47.47,0,0,0,.36.72h5.39c.36,0,.54-.36.36-.72l-2.7-4.05C14.24,5.66,13.88,5.66,13.7,5.93ZM28.63,29.76H3.45a.9.9,0,0,1-.9-.9v-1.8a.9.9,0,0,1,.9-.9H28.63a1,1,0,0,1,.9.9v1.8A.9.9,0,0,1,28.63,29.76ZM28.36,7.64h-3a.85.85,0,0,1-.9-.9.85.85,0,0,1,.9-.9h3a.85.85,0,0,1,.9.9A.85.85,0,0,1,28.36,7.64Zm.18-3.06h-24a.85.85,0,0,1-.9-.9.85.85,0,0,1,.9-.9h24a.85.85,0,0,1,.9.9A.9.9,0,0,1,28.54,4.58Zm-.18,6.48H26.29a.85.85,0,0,1-.9-.9.85.85,0,0,1,.9-.9h2.07a.85.85,0,0,1,.9.9A.85.85,0,0,1,28.36,11.06Zm0,3.32H24a.9.9,0,1,1,0-1.79h4.32a.9.9,0,1,1,0,1.79Zm0,3.33h-2.7a.9.9,0,0,1,0-1.8h2.7a.9.9,0,0,1,0,1.8Zm0,3.33H26.29a.9.9,0,1,1,0-1.8h2.07a.9.9,0,1,1,0,1.8Zm0,3.32H24a.9.9,0,1,1,0-1.79h4.32a.9.9,0,1,1,0,1.79Z"/><path d="M14.06,25.62a.85.85,0,0,1-.9-.9V10.16a.9.9,0,0,1,1.8,0V24.72A.9.9,0,0,1,14.06,25.62Z"/></svg>