<svg id="图层_1" data-name="图层 1" xmlns="http://www.w3.org/2000/svg" viewBox="0 0 64 64"><title>通视分析</title><path d="M59.67,28.45a3.05,3.05,0,0,0-2.61,1.47H50.42l0-17.73-28.88,0h0L11.36,22.32h0V30H6.93a3.08,3.08,0,1,0-.13,3.29h4.54V51.38H40.41v0l10-10,0-8.1h6.66a3.08,3.08,0,1,0,2.58-4.76Zm-36.81-13H44.62l-6.84,6.84H16ZM37.12,48.09H14.64V33.22h2v-3.3h-2V25.61H37.12ZM47.1,40l-6.69,6.68V33.22h1.73v-3.3H40.41V24.34l6.69-6.68V29.92H43.77v3.29H47.1Z"/><rect x="32.62" y="29.92" width="3.51" height="3.29"/><rect x="27.81" y="29.92" width="3.51" height="3.29"/><rect x="22.76" y="29.92" width="3.51" height="3.29"/><rect x="17.89" y="29.92" width="3.51" height="3.29"/></svg>