<?xml version="1.0" encoding="UTF-8"?>
<svg width="312px" height="50px" viewBox="0 0 312 50" version="1.1" xmlns="http://www.w3.org/2000/svg" xmlns:xlink="http://www.w3.org/1999/xlink">
    <!-- Generator: Sketch 63.1 (92452) - https://sketch.com -->
    <title>logo</title>
    <desc>Created with Sketch.</desc>
    <defs>
        <linearGradient x1="50%" y1="98.611362%" x2="50%" y2="3.03576608e-15%" id="linearGradient-1">
            <stop stop-color="#F2F9FD" offset="0%"></stop>
            <stop stop-color="#D5DEE4" offset="28.6262645%"></stop>
            <stop stop-color="#BCBEBF" offset="49.871297%"></stop>
            <stop stop-color="#D8E1E7" offset="51.0070448%"></stop>
            <stop stop-color="#FFFFFF" offset="100%"></stop>
        </linearGradient>
        <path d="M61.75,22.71875 L61.75,21.6875 L67.28125,21.6875 L67.28125,22.71875 L70.84375,22.71875 L70.84375,11 L64.84375,11 C65.34375,10.625 65.8125,10.21875 66.25,9.78125 L66.25,9.78125 L72.34375,9.78125 L72.34375,6.78125 L69.34375,6.78125 C69.59375,6.53125 69.9375,6.15625 70.375,5.65625 C71.25,4.71875 71.9375,3.96875 72.4375,3.40625 L72.4375,3.40625 L69.53125,1.625 C68.78125,2.75 68,3.71875 67.1875,4.53125 L67.1875,4.53125 L67.1875,2.46875 L64.46875,2.46875 L64.46875,0.21875 L60.90625,0.21875 L60.90625,2.46875 L58,2.46875 L58,5.375 L60.90625,5.375 L60.90625,6.78125 L57.0625,6.78125 L57.0625,9.78125 L61.375,9.78125 C59.625,10.96875 57.6875,12.09375 55.5625,13.15625 C55.6875,13.53125 55.90625,14.0625 56.21875,14.75 C56.40625,15.25 56.53125,15.59375 56.59375,15.78125 C56.46875,15.78125 56.21875,15.84375 55.84375,15.96875 C55.53125,16.03125 55.28125,16.09375 55.09375,16.15625 L55.09375,16.15625 L55.09375,9.125 L56.5,9.125 L56.5,5.5625 L55.09375,5.5625 L55.09375,0.3125 L51.625,0.3125 L51.625,5.5625 L49.9375,5.5625 L49.9375,9.125 L51.625,9.125 L51.625,17 C50.875,17.1875 50.1875,17.3125 49.5625,17.375 L49.5625,17.375 L49.9375,21.03125 C51.25,20.65625 53.34375,20.125 56.21875,19.4375 C56.59375,19.375 56.875,19.3125 57.0625,19.25 C57,18.75 56.96875,17.8125 56.96875,16.4375 C57.40625,16.25 57.8125,16 58.1875,15.6875 L58.1875,15.6875 L58.1875,22.71875 L61.75,22.71875 Z M65.03125,6.78125 L64.46875,6.78125 L64.46875,5.375 L66.4375,5.375 L66.4375,5.375 L65.8105469,6.00195312 C65.5566406,6.25585938 65.3515625,6.4609375 65.1953125,6.6171875 L65.03125,6.78125 Z M67.28125,15.125 L61.75,15.125 L61.75,13.90625 L67.28125,13.90625 L67.28125,15.125 Z M67.28125,18.96875 L61.75,18.96875 L61.75,17.75 L67.28125,17.75 L67.28125,18.96875 Z M85.84375,22.34375 C88.03125,22.34375 89.6875,22.3125 90.8125,22.25 C93.5625,22.1875 94.875,20.8125 94.75,18.125 L94.75,18.125 L94.75,4.8125 L96.34375,4.8125 L96.34375,1.34375 L80.21875,1.34375 L80.21875,3.21875 C79.84375,2.90625 79.28125,2.46875 78.53125,1.90625 C77.65625,1.21875 77,0.6875 76.5625,0.3125 L76.5625,0.3125 L74.125,3.03125 C75.4375,4.15625 76.71875,5.3125 77.96875,6.5 L77.96875,6.5 L80.21875,3.96875 L80.21875,4.8125 L90.90625,4.8125 L90.90625,16.90625 C91.03125,18.34375 90.375,19 88.9375,18.875 C87.3125,18.875 86.0625,18.84375 85.1875,18.78125 C85.4375,19.96875 85.65625,21.15625 85.84375,22.34375 Z M77.3125,12.6875 L80.125,9.6875 C79.75,9.3125 79.09375,8.75 78.15625,8 C77.21875,7.1875 76.53125,6.625 76.09375,6.3125 L76.09375,6.3125 L73.5625,9.03125 C75.1875,10.53125 76.4375,11.75 77.3125,12.6875 L77.3125,12.6875 Z M89.40625,17.28125 L89.40625,6.6875 L80.875,6.6875 L80.875,17.28125 L89.40625,17.28125 Z M86.03125,14.09375 L84.25,14.09375 L84.25,9.78125 L86.03125,9.78125 L86.03125,14.09375 Z M77.78125,22.625 C77.84375,22.3125 77.96875,21.84375 78.15625,21.21875 C79.03125,18.15625 79.6875,15.9375 80.125,14.5625 L80.125,14.5625 L76.375,13.4375 C75.625,16.375 74.84375,19.03125 74.03125,21.40625 L74.03125,21.40625 L77.78125,22.625 Z M117.34375,22.15625 C118.84375,22.21875 119.71875,21.4375 119.96875,19.8125 C120.15625,18.8125 120.3125,17.5625 120.4375,16.0625 C119.6875,15.875 118.9375,15.65625 118.1875,15.40625 C118.125,16.21875 118.0625,17.1875 118,18.3125 C118,18.125 117.96875,18.28125 117.90625,18.78125 C117.84375,19.15625 117.6875,19.34375 117.4375,19.34375 C117.25,19.34375 117.15625,19.1875 117.15625,18.875 L117.15625,18.875 L117.15625,12.78125 L120.15625,10.90625 C119.71875,10.40625 119.0625,9.6875 118.1875,8.75 C117.0625,7.4375 116.1875,6.4375 115.5625,5.75 L115.5625,5.75 L119.59375,5.75 L119.59375,2.5625 L113.96875,2.5625 C113.78125,1.6875 113.625,0.90625 113.5,0.21875 L113.5,0.21875 L108.90625,0.5 C109.09375,1.125 109.3125,1.8125 109.5625,2.5625 L109.5625,2.5625 L103.84375,2.5625 L103.843,3.219 L103.84375,5.75 L107.3125,5.75 C106.75,6.5 106.15625,7.125 105.53125,7.625 C105.34375,7.75 105.28125,7.78125 105.34375,7.71875 C104.59375,8.28125 104,8.65625 103.5625,8.84375 L103.5625,8.84375 L104.96875,11.84375 C105.40625,11.78125 105.53125,11.75 105.34375,11.75 C106.28125,11.6875 107.09375,11.625 107.78125,11.5625 C110.65625,11.4375 113.375,11.375 115.9375,11.375 C116.1875,11.625 116.375,11.875 116.5,12.125 C116.5625,12.1875 116.625,12.25 116.6875,12.3125 L116.6875,12.3125 L113.78125,12.3125 L113.78125,19.53125 C113.78125,21.28125 114.65625,22.15625 116.40625,22.15625 L116.40625,22.15625 L117.34375,22.15625 Z M101.3125,6.125 L103.843,3.219 L103.09375,2.62625 C102.34375,2.04125 101.59375,1.47875 100.84375,0.93875 L100.09375,0.40625 L97.75,3.03125 C98.75,3.78125 99.9375,4.8125 101.3125,6.125 L101.3125,6.125 Z M111.0625,8.5625 L108.71875,8.5625 C109.53125,7.875 110.59375,6.9375 111.90625,5.75 L111.90625,5.75 L114.8125,5.75 L112.5625,7.0625 C112.9375,7.5 113.3125,7.96875 113.6875,8.46875 C113.0625,8.46875 112.1875,8.5 111.0625,8.5625 L111.0625,8.5625 Z M101.03125,12.59375 L103.5625,9.6875 C102.375,8.6875 101.34375,7.875 100.46875,7.25 C100.15625,7 99.9375,6.8125 99.8125,6.6875 L99.8125,6.6875 L97.46875,9.3125 C98.65625,10.3125 99.84375,11.40625 101.03125,12.59375 L101.03125,12.59375 Z M105.0625,22.90625 C107.125,20.84375 108.09375,18.5 107.96875,15.875 L107.96875,15.875 L107.96875,12.3125 L104.59375,12.3125 L104.59375,15.78125 C104.65625,17.78125 103.84375,19.46875 102.15625,20.84375 C102.96875,21.34375 103.9375,22.03125 105.0625,22.90625 Z M112.65625,22.0625 L112.65625,12.3125 L109.1875,12.3125 L109.1875,22.0625 L112.65625,22.0625 Z M101.40625,22.53125 C102.15625,19.46875 102.875,16.78125 103.5625,14.46875 L103.5625,14.46875 L99.90625,13.4375 C99.15625,16.8125 98.4375,19.5625 97.75,21.6875 L97.75,21.6875 L101.40625,22.53125 Z M135.34375,22.71875 C136.15625,21.90625 136.9375,21.0625 137.6875,20.1875 C138.3125,21.875 139.375,22.6875 140.875,22.625 C142.4375,22.6875 143.40625,21.78125 143.78125,19.90625 C144.03125,19.15625 144.25,17.90625 144.4375,16.15625 C144.0625,16.03125 143.53125,15.8125 142.84375,15.5 C142.40625,15.375 142.0625,15.25 141.8125,15.125 C141.6875,16.25 141.5625,17.1875 141.4375,17.9375 C141.375,18.6875 141.1875,19.03125 140.875,18.96875 C140.6875,18.96875 140.5,18.65625 140.3125,18.03125 L140.3125,18.03125 L140.3125,17.5625 C140.25,17.375 140.21875,17.25 140.21875,17.1875 C141.78125,14.75 143.15625,11.96875 144.34375,8.84375 L144.34375,8.84375 L141.4375,7.625 C140.875,9.3125 140.28125,10.8125 139.65625,12.125 C139.53125,11.1875 139.46875,10.125 139.46875,8.9375 L139.46875,8.9375 L139.46875,7.90625 C139.40625,7.40625 139.375,7.0625 139.375,6.875 L139.375,6.875 L144.25,6.875 L144.25,3.6875 L142.09375,3.6875 L143.96875,2.9375 C143.96875,2.875 143.90625,2.78125 143.78125,2.65625 C143.15625,1.59375 142.65625,0.8125 142.28125,0.3125 L142.28125,0.3125 L139.65625,1.4375 C139.78125,1.6875 139.96875,2 140.21875,2.375 C140.53125,3 140.75,3.4375 140.875,3.6875 L140.875,3.6875 L139.28125,3.6875 C139.28125,3.3125 139.25,2.71875 139.1875,1.90625 L139.1875,1.90625 L139.1875,0.40625 L135.71875,0.40625 C135.78125,0.71875 135.8125,1.25 135.8125,2 C135.875,2.75 135.90625,3.3125 135.90625,3.6875 L135.90625,3.6875 L128.40625,3.6875 L128.40625,6.875 L136.09375,6.875 C136.09375,7.6875 136.125,8.4375 136.1875,9.125 C136.25,11.25 136.40625,13.5 136.65625,15.875 C136.71875,16.0625 136.75,16.21875 136.75,16.34375 C136.5,16.71875 136.1875,17.0625 135.8125,17.375 C133.875,17.5625 131.34375,17.71875 128.21875,17.84375 L128.21875,17.84375 L128.21875,16.0625 L126.71875,16.25 L126.71875,9.59375 L128.125,9.59375 L128.125,6.03125 L126.71875,6.03125 L126.71875,0.3125 L123.4375,0.3125 L123.4375,6.03125 L121.84375,6.03125 L121.84375,9.59375 L123.4375,9.59375 L123.4375,16.71875 C122.8125,16.78125 122.15625,16.875 121.46875,17 L121.46875,17 L122.03125,20.65625 C122.34375,20.59375 122.90625,20.5 123.71875,20.375 C125.59375,20.0625 126.96875,19.84375 127.84375,19.71875 L127.84375,19.71875 L128.125,21.3125 C128.5,21.25 129.1875,21.1875 130.1875,21.125 C131.8125,20.9375 133.03125,20.78125 133.84375,20.65625 C134.03125,20.90625 134.28125,21.25 134.59375,21.6875 C134.96875,22.1875 135.21875,22.53125 135.34375,22.71875 Z M135.34375,16.4375 L135.34375,8.1875 L128.6875,8.1875 L128.6875,16.4375 L135.34375,16.4375 Z M132.71875,13.34375 L131.3125,13.34375 L131.3125,11.1875 L132.71875,11.1875 L132.71875,13.34375 Z" id="path-2"></path>
        <filter x="-2.1%" y="-4.4%" width="104.2%" height="117.6%" filterUnits="objectBoundingBox" id="filter-3">
            <feOffset dx="0" dy="1" in="SourceAlpha" result="shadowOffsetOuter1"></feOffset>
            <feGaussianBlur stdDeviation="0.5" in="shadowOffsetOuter1" result="shadowBlurOuter1"></feGaussianBlur>
            <feColorMatrix values="0 0 0 0 0   0 0 0 0 0   0 0 0 0 0  0 0 0 0.5 0" type="matrix" in="shadowBlurOuter1"></feColorMatrix>
        </filter>
        <linearGradient x1="50%" y1="98.611362%" x2="50%" y2="3.03576608e-15%" id="linearGradient-4">
            <stop stop-color="#F2F9FD" offset="0%"></stop>
            <stop stop-color="#D5DEE4" offset="28.6262645%"></stop>
            <stop stop-color="#BCBEBF" offset="49.871297%"></stop>
            <stop stop-color="#D8E1E7" offset="51.0070448%"></stop>
            <stop stop-color="#FFFFFF" offset="100%"></stop>
        </linearGradient>
        <path d="M54.46875,48 C55.8229167,48 56.96875,47.9739583 57.90625,47.921875 C59.9895833,47.8697917 60.9791667,46.8802083 60.875,44.953125 L60.875,44.953125 L60.875,41.28125 C62.0208333,43.1041667 64.078125,44.9010417 67.046875,46.671875 C67.671875,45.7864583 68.21875,44.953125 68.6875,44.171875 C66.5520833,43.1302083 64.8072917,41.9583333 63.453125,40.65625 C64.078125,40.2916667 64.9895833,39.7447917 66.1875,39.015625 C67.125,38.390625 67.828125,37.9479167 68.296875,37.6875 L68.296875,37.6875 L66.1875,35.890625 C64.3645833,37.0885417 62.9322917,38 61.890625,38.625 C61.5260417,38.0520833 61.1875,37.4010417 60.875,36.671875 L60.875,36.671875 L60.875,34.09375 L57.515625,34.09375 L57.515625,44.40625 C57.5677083,45.2916667 57.1510417,45.7083333 56.265625,45.65625 L56.265625,45.65625 L53.84375,45.65625 C53.8958333,45.8125 53.9479167,46.046875 54,46.359375 C54.2604167,47.140625 54.4166667,47.6875 54.46875,48 Z M50.875,46.984375 C54.2083333,44.6927083 56.2395833,42.0625 56.96875,39.09375 L56.96875,39.09375 L56.96875,36.90625 L49.859375,36.90625 L49.859375,39.25 L53.84375,39.25 C53.2708333,41.2291667 51.734375,43 49.234375,44.5625 C49.9114583,45.5 50.4583333,46.3072917 50.875,46.984375 Z M72.046875,48.078125 C73.296875,46.4635417 73.8958333,43.9635417 73.84375,40.578125 L73.84375,40.578125 L73.84375,37.140625 L88.375,37.140625 L88.375,35.1875 L81.890625,35.1875 C81.8385417,35.03125 81.7734375,34.8098958 81.6953125,34.5234375 C81.6171875,34.2369792 81.5520833,33.9895833 81.5,33.78125 L81.5,33.78125 L77.671875,34.015625 C77.9322917,34.5364583 78.140625,34.9270833 78.296875,35.1875 L78.296875,35.1875 L70.953125,35.1875 L70.953125,40.5 C71.0052083,43.2604167 70.5104167,45.34375 69.46875,46.75 C69.8854167,47.0104167 70.4583333,47.3229167 71.1875,47.6875 C71.5520833,47.8958333 71.8385417,48.0260417 72.046875,48.078125 Z M83.0625,48 L83.0625,46.203125 L88.296875,46.203125 L88.296875,44.328125 L83.0625,44.328125 L83.0625,43.46875 L87.515625,43.46875 L87.515625,41.59375 L83.0625,41.59375 L83.0625,40.34375 L80.015625,40.34375 L80.015625,41.59375 L77.984375,41.59375 L79.46875,40.03125 L87.984375,40.03125 L87.984375,38.15625 L81.1875,38.15625 C81.4479167,37.84375 81.6822917,37.5833333 81.890625,37.375 L81.890625,37.375 L78.453125,37.375 C78.4010417,37.4791667 78.296875,37.609375 78.140625,37.765625 C77.984375,37.921875 77.8802083,38.0520833 77.828125,38.15625 L77.828125,38.15625 L74.3125,38.15625 L74.3125,40.03125 L76.109375,40.03125 C75.640625,40.5520833 75.1458333,41.0989583 74.625,41.671875 L74.625,41.671875 L74.625,43.46875 L80.015625,43.46875 L80.015625,44.328125 L73.84375,44.328125 L73.84375,46.203125 L80.015625,46.203125 L80.015625,48 L83.0625,48 Z M105.40625,48 L105.40625,45.265625 L108.453125,45.265625 L108.453125,43.15625 L105.40625,43.15625 L105.40625,41.984375 L107.984375,41.984375 L107.984375,39.953125 L105.40625,39.953125 L105.40625,38.78125 L108.21875,38.78125 L108.21875,36.75 L106.65625,36.75 C106.708333,36.6458333 106.8125,36.515625 106.96875,36.359375 C107.489583,35.6822917 107.90625,35.1614583 108.21875,34.796875 L108.21875,34.796875 L105.640625,33.78125 C105.015625,34.875 104.364583,35.8645833 103.6875,36.75 L103.6875,36.75 L101.96875,36.75 L103.765625,36.046875 C103.505208,35.578125 103.010417,34.8489583 102.28125,33.859375 L102.28125,33.859375 L99.859375,34.71875 C100.223958,35.2395833 100.640625,35.9166667 101.109375,36.75 L101.109375,36.75 L99.546875,36.75 L99.546875,38.78125 L102.359375,38.78125 L102.359375,39.953125 L99.703125,39.953125 L99.703125,41.984375 L102.359375,41.984375 L102.359375,43.15625 L99.078125,43.15625 L99.078125,45.265625 L102.359375,45.265625 L102.359375,48 L105.40625,48 Z M93.6875,47.84375 L93.6875,47.140625 L96.03125,47.140625 L96.03125,47.84375 L98.609375,47.84375 L98.609375,42.375 L93.375,42.375 C93.4270833,42.1145833 93.53125,41.8802083 93.6875,41.671875 L93.6875,41.671875 L98.53125,41.671875 L98.53125,39.015625 L99.234375,39.015625 L99.234375,37.21875 L98.53125,37.21875 L98.53125,34.5625 L90.25,34.5625 L90.25,36.359375 L92.046875,36.359375 C92.046875,36.6197917 92.0208333,36.90625 91.96875,37.21875 L91.96875,37.21875 L89.625,37.21875 L89.625,39.015625 L91.8125,39.015625 C91.8125,39.328125 91.7604167,39.6145833 91.65625,39.875 L91.65625,39.875 L89.9375,39.875 L89.9375,41.671875 L91.109375,41.671875 C90.796875,42.296875 90.1979167,43 89.3125,43.78125 C89.5729167,44.6145833 89.78125,45.4479167 89.9375,46.28125 C90.09375,46.1770833 90.3020833,46.0078125 90.5625,45.7734375 C90.8229167,45.5390625 91.0052083,45.3697917 91.109375,45.265625 L91.109375,45.265625 L91.109375,47.84375 L93.6875,47.84375 Z M96.109375,37.21875 L94.546875,37.21875 L94.546875,37.21875 L94.546875,36.359375 L96.109375,36.359375 L96.109375,37.21875 Z M96.109375,39.875 L94.15625,39.875 C94.2604167,39.6145833 94.3125,39.328125 94.3125,39.015625 L94.3125,39.015625 L96.109375,39.015625 L96.109375,39.875 Z M96.03125,45.34375 L93.6875,45.34375 L93.6875,44.25 L96.03125,44.25 L96.03125,45.34375 Z M118.765625,48.078125 C120.744792,46.515625 121.786458,44.4322917 121.890625,41.828125 L121.890625,41.828125 L124.625,41.828125 C124.625,42.0364583 124.598958,42.5052083 124.546875,43.234375 L124.546875,43.234375 L124.546875,44.328125 C124.546875,45.2135417 124.130208,45.6432292 123.296875,45.6171875 C122.463542,45.5911458 121.734375,45.578125 121.109375,45.578125 C121.317708,46.4114583 121.473958,47.0364583 121.578125,47.453125 C121.630208,47.6614583 121.65625,47.8177083 121.65625,47.921875 C122.854167,47.921875 123.84375,47.8958333 124.625,47.84375 C126.552083,47.84375 127.515625,46.8541667 127.515625,44.875 C127.671875,43.2083333 127.75,41.4635417 127.75,39.640625 L127.75,39.640625 L122.046875,39.640625 C122.098958,39.2239583 122.125,38.78125 122.125,38.3125 L122.125,38.3125 L128.453125,38.3125 L128.453125,36.046875 L124.625,36.046875 C124.572917,35.4739583 124.416667,34.8229167 124.15625,34.09375 L124.15625,34.09375 L120.640625,34.25 C120.692708,34.40625 120.770833,34.640625 120.875,34.953125 C121.03125,35.421875 121.135417,35.7864583 121.1875,36.046875 L121.1875,36.046875 L117.515625,36.046875 L117.515625,38.3125 L119.078125,38.3125 C119.078125,38.625 119.065104,39.09375 119.039062,39.71875 C119.013021,40.34375 118.973958,40.8125 118.921875,41.125 C118.921875,43.46875 117.932292,45.34375 115.953125,46.75 C116.042411,46.7946429 116.150829,46.848852 116.27838,46.9126276 L116.890625,47.21875 C117.671875,47.6354167 118.296875,47.921875 118.765625,48.078125 Z M117.180941,37.3402778 C117.108925,37.5428241 117.194444,37.3200231 117.4375,36.671875 L117.4375,36.671875 L117.4375,34.5625 L110.171875,34.5625 L110.171875,48 L113.0625,48 L113.0625,44.25 L113.53125,45.8125 C113.635417,45.8125 113.84375,45.7994792 114.15625,45.7734375 C114.46875,45.7473958 114.703125,45.734375 114.859375,45.734375 C116.890625,45.5260417 117.880208,44.5885417 117.828125,42.921875 C117.723958,41.7760417 117.177083,40.8125 116.1875,40.03125 C116.633929,38.8258929 116.965561,37.9266582 117.182398,37.3335459 L117.185,37.326 L117.180941,37.3402778 Z M113.921875,43.46875 L113.0625,43.46875 L113.0625,36.671875 L114.46875,36.671875 C114.364583,37.0364583 114.15625,37.6875 113.84375,38.625 C113.635417,39.3541667 113.479167,39.9010417 113.375,40.265625 C114.3125,41.203125 114.794271,41.9713542 114.820312,42.5703125 C114.846354,43.1692708 114.546875,43.46875 113.921875,43.46875 L113.921875,43.46875 Z M133.453125,38.078125 L135.25,35.96875 C134.3125,35.34375 133.166667,34.6927083 131.8125,34.015625 L131.8125,34.015625 L130.171875,35.96875 C130.432292,36.125 130.796875,36.359375 131.265625,36.671875 C132.255208,37.296875 132.984375,37.765625 133.453125,38.078125 L133.453125,38.078125 Z M145.953125,48.234375 L147.984375,46.4375 C147.567708,46.125 146.942708,45.6692708 146.109375,45.0703125 C145.276042,44.4713542 144.625,44.015625 144.15625,43.703125 L144.15625,43.703125 L148.453125,43.703125 L148.453125,41.59375 L145.953125,41.59375 L145.953125,38.78125 L147.90625,38.78125 L147.90625,36.671875 L145.953125,36.671875 L145.953125,34.09375 L142.828125,34.09375 L142.828125,36.671875 L140.09375,36.671875 L140.09375,34.09375 L136.96875,34.09375 L136.96875,36.671875 L135.25,36.671875 L135.25,38.78125 L136.96875,38.78125 L136.96875,41.59375 L134.78125,41.59375 L134.78125,43.703125 L138.609375,43.703125 C136.942708,45.0052083 135.666667,45.9427083 134.78125,46.515625 L134.78125,46.515625 L136.890625,48.234375 C138.088542,47.453125 139.442708,46.4635417 140.953125,45.265625 L140.953125,45.265625 L138.84375,43.703125 L143.609375,43.703125 L141.890625,45.265625 C142.515625,45.6822917 143.401042,46.3333333 144.546875,47.21875 C145.171875,47.7395833 145.640625,48.078125 145.953125,48.234375 L145.953125,48.234375 Z M132.828125,41.90625 L134.703125,39.875 C134.390625,39.71875 133.921875,39.40625 133.296875,38.9375 C132.359375,38.3645833 131.682292,37.9479167 131.265625,37.6875 L131.265625,37.6875 L129.546875,39.640625 C129.911458,39.8489583 130.471354,40.2135417 131.226562,40.734375 C131.981771,41.2552083 132.515625,41.6458333 132.828125,41.90625 L132.828125,41.90625 Z M142.828125,41.59375 L140.09375,41.59375 L140.09375,38.78125 L142.828125,38.78125 L142.828125,41.59375 Z M132.59375,48.15625 C133.53125,45.6041667 134.15625,43.859375 134.46875,42.921875 L134.46875,42.921875 L131.578125,41.90625 C130.901042,44.1458333 130.276042,45.9166667 129.703125,47.21875 L129.703125,47.21875 L132.59375,48.15625 Z M158.84375,48.078125 C160.822917,47.0885417 162.151042,45.9947917 162.828125,44.796875 C163.609375,46.1510417 165.015625,47.21875 167.046875,48 C167.203125,47.7916667 167.424479,47.4270833 167.710938,46.90625 C167.997396,46.3854167 168.21875,45.9947917 168.375,45.734375 C166.34375,45.109375 165.041667,44.09375 164.46875,42.6875 L164.46875,42.6875 L168.296875,42.6875 L168.296875,40.578125 L164.3125,40.578125 L164.3125,40.578125 L164.3125,39.015625 L167.828125,39.015625 L167.828125,36.984375 L165.796875,36.984375 C166.421875,36.2552083 166.96875,35.578125 167.4375,34.953125 L167.4375,34.953125 L165.015625,33.859375 C164.911458,34.015625 164.729167,34.2760417 164.46875,34.640625 C163.739583,35.734375 163.192708,36.515625 162.828125,36.984375 L162.828125,36.984375 L161.03125,36.984375 L162.59375,36.046875 C162.177083,35.578125 161.5,34.8229167 160.5625,33.78125 L160.5625,33.78125 L158.53125,35.03125 C158.6875,35.2395833 158.973958,35.578125 159.390625,36.046875 C159.703125,36.4635417 159.9375,36.7760417 160.09375,36.984375 L160.09375,36.984375 L158.140625,36.984375 L158.140625,39.015625 L161.34375,39.015625 L161.34375,39.015625 L161.34375,40.578125 L157.75,40.578125 L157.75,42.6875 L161.109375,42.6875 C160.901042,43.8854167 159.546875,45.03125 157.046875,46.125 C157.151042,46.28125 157.333333,46.4895833 157.59375,46.75 C158.21875,47.4791667 158.635417,47.921875 158.84375,48.078125 Z M157.046875,48 L157.046875,46.125 L157.046875,46.125 L157.046875,45.734375 C157.151042,45.734375 157.307292,45.7213542 157.515625,45.6953125 L157.634375,45.68125 C157.784375,45.6645833 157.901042,45.65625 157.984375,45.65625 C157.984375,44.9270833 158.010417,44.25 158.0625,43.625 C157.90625,43.625 157.723958,43.6380208 157.515625,43.6640625 C157.307292,43.6901042 157.151042,43.703125 157.046875,43.703125 L157.046875,43.703125 L157.046875,36.671875 L157.828125,36.671875 L157.828125,34.71875 L149.625,34.71875 L149.625,36.671875 L150.40625,36.671875 L150.40625,44.484375 C150.09375,44.5364583 149.78125,44.5625 149.46875,44.5625 L149.46875,44.5625 L149.78125,46.75 C150.666667,46.6458333 151.864583,46.4635417 153.375,46.203125 C153.895833,46.1510417 154.286458,46.0989583 154.546875,46.046875 L154.546875,46.046875 L154.546875,48 L157.046875,48 Z M154.546875,38 L152.984375,38 L152.984375,36.671875 L154.546875,36.671875 L154.546875,38 Z M154.546875,40.96875 L152.984375,40.96875 L152.984375,39.71875 L154.546875,39.71875 L154.546875,40.96875 Z M152.984375,44.25 L152.984375,42.6875 L154.546875,42.6875 L154.546875,44.015625 C153.973958,44.0677083 153.453125,44.1458333 152.984375,44.25 L152.984375,44.25 Z M170.875,40.96875 C171.96875,40.5520833 172.710938,40.2526042 173.101562,40.0703125 C173.492188,39.8880208 173.765625,39.7708333 173.921875,39.71875 L173.921875,39.71875 L173.921875,40.65625 L184.078125,40.65625 L184.078125,39.640625 C184.911458,40.0052083 185.901042,40.3697917 187.046875,40.734375 C187.203125,40.4739583 187.450521,40.0703125 187.789062,39.5234375 C188.127604,38.9765625 188.375,38.5729167 188.53125,38.3125 C185.145833,37.4791667 182.567708,36.2552083 180.796875,34.640625 C181.005208,34.3802083 181.1875,34.1458333 181.34375,33.9375 L181.34375,33.9375 L177.828125,33.78125 C176.369792,35.7083333 173.583333,37.3229167 169.46875,38.625 C169.572917,38.78125 169.729167,39.0416667 169.9375,39.40625 C170.40625,40.1875 170.71875,40.7083333 170.875,40.96875 Z M181.96875,38.546875 L176.03125,38.546875 C177.229167,37.8697917 178.270833,37.140625 179.15625,36.359375 C179.9375,37.1927083 180.875,37.921875 181.96875,38.546875 L181.96875,38.546875 Z M174.703125,48 L174.703125,47.53125 L183.21875,47.53125 L183.21875,48 L186.34375,48 L186.34375,41.671875 L171.578125,41.671875 L171.578125,48 L174.703125,48 Z M183.21875,45.421875 L174.703125,45.421875 L174.703125,43.703125 L183.21875,43.703125 L183.21875,45.421875 Z M192.4375,38.078125 L194.703125,36.515625 C193.817708,35.5260417 192.984375,34.640625 192.203125,33.859375 L192.203125,33.859375 L190.09375,35.34375 C190.875,36.1770833 191.65625,37.0885417 192.4375,38.078125 L192.4375,38.078125 Z M196.109375,48.15625 C197.463542,46.6979167 198.0625,44.4583333 197.90625,41.4375 L197.90625,41.4375 L197.90625,36.4375 L205.015625,36.4375 L205.015625,45.265625 C205.067708,45.8385417 204.859375,46.0989583 204.390625,46.046875 L204.390625,46.046875 L204.390625,42.21875 L198.53125,42.21875 L198.53125,46.59375 L202.515625,46.59375 C202.671875,47.1145833 202.802083,47.5833333 202.90625,48 L202.90625,48 L205.328125,48 C207.098958,48 207.932292,47.1666667 207.828125,45.5 L207.828125,45.5 L207.828125,34.5625 L195.09375,34.5625 L195.09375,41.4375 C195.09375,42.9479167 195.015625,43.9635417 194.859375,44.484375 C194.755208,44.171875 194.651042,43.5729167 194.546875,42.6875 L194.546875,42.6875 L194.546875,42.375 L193.53125,43.15625 L193.53125,38.3125 L189.546875,38.3125 L189.546875,40.5 L190.796875,40.5 L190.796875,44.09375 C190.796875,44.7708333 190.588542,45.2135417 190.171875,45.421875 L190.171875,45.421875 L191.578125,47.453125 C191.942708,47.0885417 192.880208,46.3333333 194.390625,45.1875 C194.546875,45.03125 194.677083,44.9270833 194.78125,44.875 C194.625,45.6041667 194.182292,46.3854167 193.453125,47.21875 C194.286458,47.53125 195.171875,47.84375 196.109375,48.15625 Z M204.546875,41.59375 L204.546875,39.875 L202.75,39.875 L202.75,39.09375 L204.3125,39.09375 L204.3125,37.375 L202.75,37.375 L202.75,36.671875 L200.171875,36.671875 L200.171875,37.375 L198.609375,37.375 L198.609375,39.09375 L200.171875,39.09375 L200.171875,39.875 L198.375,39.875 L198.375,41.59375 L204.546875,41.59375 Z M202.046875,44.875 L200.875,44.875 L200.875,43.859375 L202.046875,43.859375 L202.046875,44.875 Z M214,48.078125 C216.708333,47.8697917 218.947917,47.5052083 220.71875,46.984375 C222.489583,47.5052083 224.729167,47.84375 227.4375,48 C227.541667,47.7916667 227.697917,47.4401042 227.90625,46.9453125 C228.114583,46.4505208 228.270833,46.0989583 228.375,45.890625 C226.8125,45.8385417 225.40625,45.734375 224.15625,45.578125 C225.09375,45.109375 225.979167,44.5625 226.8125,43.9375 L226.8125,43.9375 L226.8125,42.0625 L214,42.0625 L214,43.859375 L215.25,43.859375 C215.979167,44.5364583 216.734375,45.109375 217.515625,45.578125 C216.265625,45.7864583 214.78125,45.96875 213.0625,46.125 C213.53125,44.71875 213.765625,42.9479167 213.765625,40.8125 L213.765625,40.8125 L213.765625,39.484375 L215.71875,39.484375 L215.71875,41.59375 L225.640625,41.59375 L225.640625,39.484375 L228.21875,39.484375 L228.21875,37.6875 L225.640625,37.6875 L225.640625,36.90625 L228.375,36.90625 L228.375,35.03125 L221.8125,35.03125 C221.708333,34.6145833 221.578125,34.171875 221.421875,33.703125 L221.421875,33.703125 L217.75,33.859375 C217.90625,34.2239583 218.088542,34.6145833 218.296875,35.03125 L218.296875,35.03125 L210.875,35.03125 L210.875,40.578125 C210.927083,43.234375 210.458333,45.265625 209.46875,46.671875 C210.458333,47.296875 211.317708,47.765625 212.046875,48.078125 C212.463542,47.609375 212.776042,46.984375 212.984375,46.203125 C213.088542,46.4114583 213.270833,46.7760417 213.53125,47.296875 C213.791667,47.7135417 213.947917,47.9739583 214,48.078125 Z M222.75,37.6875 L218.609375,37.6875 L218.609375,36.90625 L222.75,36.90625 L222.75,37.6875 Z M215.71875,37.6875 L213.765625,37.6875 L213.765625,36.90625 L215.71875,36.90625 L215.71875,37.6875 Z M222.75,40.1875 L218.609375,40.1875 L218.609375,39.484375 L222.75,39.484375 L222.75,40.1875 Z M220.796875,44.875 C219.911458,44.5625 219.15625,44.2239583 218.53125,43.859375 L218.53125,43.859375 L223.140625,43.859375 C222.515625,44.2239583 221.734375,44.5625 220.796875,44.875 Z M234.78125,48 L234.78125,47.6875 L243.6875,47.6875 L243.6875,48 L246.8125,48 L246.8125,44.015625 L234.78125,44.015625 L234.78125,43.546875 L246.109375,43.546875 L246.109375,40.890625 L248.0625,40.890625 L248.0625,37.765625 L240.484375,37.765625 C240.484375,37.7135417 240.458333,37.6614583 240.40625,37.609375 C240.302083,37.453125 240.223958,37.3229167 240.171875,37.21875 C240.328125,37.2708333 240.536458,37.3359375 240.796875,37.4140625 C241.057292,37.4921875 241.239583,37.5572917 241.34375,37.609375 C241.65625,37.2447917 241.96875,36.90625 242.28125,36.59375 L242.28125,36.59375 L242.828125,36.59375 C242.932292,36.6979167 243.075521,36.8541667 243.257812,37.0625 C243.440104,37.2708333 243.583333,37.4270833 243.6875,37.53125 L243.6875,37.53125 L246.578125,37.296875 C246.265625,37.0364583 246.005208,36.8020833 245.796875,36.59375 L245.796875,36.59375 L248.375,36.59375 L248.375,34.953125 L243.453125,34.953125 C243.661458,34.640625 243.84375,34.328125 244,34.015625 L244,34.015625 L241.03125,33.859375 C240.71875,34.5364583 240.171875,35.2916667 239.390625,36.125 L239.390625,36.125 L239.390625,34.953125 L234.703125,34.953125 C234.807292,34.8489583 234.924479,34.6927083 235.054688,34.484375 C235.184896,34.2760417 235.276042,34.1197917 235.328125,34.015625 L235.328125,34.015625 L232.28125,33.859375 C231.708333,34.9010417 230.744792,35.8125 229.390625,36.59375 C229.494792,36.6458333 229.677083,36.7760417 229.9375,36.984375 C230.354167,37.3489583 230.666667,37.609375 230.875,37.765625 L230.875,37.765625 L230.015625,37.765625 L230.015625,40.890625 L231.734375,40.890625 L231.734375,48 L234.78125,48 Z M237.515625,37.765625 L231.734375,37.765625 C232.307292,37.3489583 232.828125,36.9583333 233.296875,36.59375 L233.296875,36.59375 L233.765625,36.59375 C234.078125,36.90625 234.338542,37.21875 234.546875,37.53125 L234.546875,37.53125 L237.203125,37.375 C237.307292,37.53125 237.411458,37.6614583 237.515625,37.765625 L237.515625,37.765625 Z M240.015625,37.21875 L237.28125,37.21875 C237.229167,37.1666667 237.151042,37.0885417 237.046875,36.984375 C236.890625,36.7760417 236.760417,36.6458333 236.65625,36.59375 L236.65625,36.59375 L238.921875,36.59375 C238.869792,36.6458333 238.791667,36.7239583 238.6875,36.828125 C239.15625,36.9322917 239.598958,37.0625 240.015625,37.21875 L240.015625,37.21875 Z M244.9375,39.953125 L233.140625,39.953125 L233.140625,39.40625 L244.9375,39.40625 L244.9375,39.953125 Z M242.984375,41.984375 L234.78125,41.984375 L234.78125,41.4375 L242.984375,41.4375 L242.984375,41.984375 Z M243.6875,46.125 L234.78125,46.125 L234.78125,45.578125 L243.6875,45.578125 L243.6875,46.125 Z M268.453125,47.765625 L268.453125,45.65625 L263.53125,45.65625 L263.53125,43.78125 L267.59375,43.78125 L267.59375,41.75 L266.8125,41.75 L268.21875,39.953125 C267.958333,39.8489583 267.567708,39.6666667 267.046875,39.40625 C266.421875,39.09375 265.953125,38.859375 265.640625,38.703125 L265.640625,38.703125 L268.21875,38.703125 L268.21875,35.34375 L263.6875,35.34375 C263.635417,34.9791667 263.479167,34.484375 263.21875,33.859375 L263.21875,33.859375 L259.78125,34.09375 C259.833333,34.1979167 259.911458,34.3541667 260.015625,34.5625 C260.119792,34.9270833 260.223958,35.1875 260.328125,35.34375 L260.328125,35.34375 L255.953125,35.34375 L255.953125,38.78125 L258.453125,38.78125 C257.203125,39.40625 256.369792,39.796875 255.953125,39.953125 L255.953125,39.953125 L257.28125,41.75 L256.5,41.75 L256.5,43.78125 L260.40625,43.78125 L260.40625,45.65625 L255.25,45.65625 L255.25,47.765625 L268.453125,47.765625 Z M252.359375,48 C253.713542,47.8958333 254.364583,47.140625 254.3125,45.734375 L254.3125,45.734375 L254.3125,42.53125 C254.46875,42.4791667 254.651042,42.453125 254.859375,42.453125 C255.380208,42.3489583 255.692708,42.2708333 255.796875,42.21875 L255.796875,42.21875 L255.796875,39.953125 C255.276042,40.0052083 254.78125,40.0833333 254.3125,40.1875 L254.3125,40.1875 L254.3125,38.46875 L255.484375,38.46875 L255.484375,36.359375 L254.3125,36.359375 L254.3125,34.09375 L251.421875,34.09375 L251.421875,36.359375 L249.859375,36.359375 L249.859375,38.46875 L251.421875,38.46875 L251.421875,40.734375 C251.213542,40.734375 250.888021,40.7604167 250.445312,40.8125 C250.002604,40.8645833 249.677083,40.9166667 249.46875,40.96875 L249.46875,40.96875 L249.703125,43.46875 C249.911458,43.4166667 250.210938,43.3515625 250.601562,43.2734375 C250.992188,43.1953125 251.265625,43.15625 251.421875,43.15625 L251.421875,43.15625 L251.421875,45.265625 C251.473958,45.6822917 251.265625,45.890625 250.796875,45.890625 L250.796875,45.890625 L249.625,45.890625 C249.625,46.046875 249.677083,46.3072917 249.78125,46.671875 C249.885417,47.296875 249.963542,47.7395833 250.015625,48 L250.015625,48 L252.359375,48 Z M266.421875,41.75 L257.515625,41.75 C259.130208,40.96875 260.5625,40.2135417 261.8125,39.484375 L261.8125,39.484375 L260.171875,37.84375 C259.703125,38.15625 259.351562,38.3515625 259.117188,38.4296875 C258.882812,38.5078125 258.739583,38.5729167 258.6875,38.625 L258.6875,38.625 L258.6875,37.453125 L265.25,37.453125 L265.25,38.546875 C264.78125,38.2864583 264.3125,38.0520833 263.84375,37.84375 L263.84375,37.84375 L262.359375,39.484375 C264.286458,40.5260417 265.640625,41.28125 266.421875,41.75 L266.421875,41.75 Z M278.296875,48 C280.171875,48 281.057292,47.0885417 280.953125,45.265625 L280.953125,45.265625 L280.953125,43.46875 C281.421875,43.46875 282.072917,43.4427083 282.90625,43.390625 C283.84375,43.390625 284.520833,43.3645833 284.9375,43.3125 C285.40625,43.78125 285.848958,44.171875 286.265625,44.484375 L286.265625,44.484375 L288.21875,43 C287.125,42.0625 285.666667,40.890625 283.84375,39.484375 L283.84375,39.484375 L281.890625,40.65625 C282.203125,40.9166667 282.489583,41.1510417 282.75,41.359375 L282.75,41.359375 L282.90625,41.515625 C280.197917,41.6197917 278.166667,41.671875 276.8125,41.671875 C280.197917,40.5260417 283.427083,39.40625 286.5,38.3125 L286.5,38.3125 L284.3125,36.671875 C283.114583,37.1927083 282.294271,37.5442708 281.851562,37.7265625 C281.408854,37.9088542 281.083333,38.0520833 280.875,38.15625 C280.40625,38.15625 279.690104,38.1692708 278.726562,38.1953125 C277.763021,38.2213542 277.072917,38.234375 276.65625,38.234375 C277.802083,37.8177083 279,37.3229167 280.25,36.75 C282.854167,36.6458333 285.380208,36.5677083 287.828125,36.515625 L287.828125,36.515625 L287.28125,34.40625 C283.53125,34.6145833 277.854167,34.7708333 270.25,34.875 C270.302083,35.2395833 270.40625,35.7083333 270.5625,36.28125 C270.614583,36.59375 270.666667,36.828125 270.71875,36.984375 C271.1875,36.984375 271.916667,36.9713542 272.90625,36.9453125 C273.895833,36.9192708 274.651042,36.90625 275.171875,36.90625 C274.442708,37.2708333 273.960938,37.4921875 273.726562,37.5703125 C273.492188,37.6484375 273.322917,37.7135417 273.21875,37.765625 C272.59375,37.9739583 271.96875,38.1302083 271.34375,38.234375 L271.34375,38.234375 L271.96875,40.265625 C272.802083,40.1614583 273.544271,40.0963542 274.195312,40.0703125 C274.846354,40.0442708 275.5625,40.03125 276.34375,40.03125 C275.25,40.4479167 274.182292,40.8125 273.140625,41.125 C272.567708,41.3854167 271.760417,41.5677083 270.71875,41.671875 L270.71875,41.671875 L271.34375,43.859375 C272.072917,43.7552083 272.75,43.703125 273.375,43.703125 L273.375,43.703125 L274.078125,43.703125 C272.411458,44.640625 270.875,45.3697917 269.46875,45.890625 C269.625,46.0989583 269.833333,46.359375 270.09375,46.671875 C270.510417,47.296875 270.796875,47.7395833 270.953125,48 C272.255208,47.375 273.53125,46.6979167 274.78125,45.96875 C274.833333,46.2291667 274.9375,46.6458333 275.09375,47.21875 C275.197917,47.5833333 275.276042,47.84375 275.328125,48 L275.328125,48 L278.296875,48 Z M286.734375,48 L288.296875,45.96875 C288.088542,45.8645833 287.723958,45.6822917 287.203125,45.421875 C285.484375,44.5364583 284.15625,43.8854167 283.21875,43.46875 L283.21875,43.46875 L281.65625,45.265625 C282.072917,45.4739583 282.723958,45.8125 283.609375,46.28125 C285.015625,47.0104167 286.057292,47.5833333 286.734375,48 L286.734375,48 Z M276.864931,45.9743056 L276.734375,45.96875 L276.734375,45.96875 L274.859375,45.96875 L276.1875,45.1875 L274.859375,43.625 C275.171875,43.625 275.640625,43.6119792 276.265625,43.5859375 C276.890625,43.5598958 277.359375,43.546875 277.671875,43.546875 L277.671875,43.546875 L277.671875,45.03125 C277.723958,45.7083333 277.411458,46.0208333 276.734375,45.96875 L276.864931,45.9743056 Z M297.125,48.078125 C299.833333,46.984375 301.109375,45.265625 300.953125,42.921875 C301.005208,42.5572917 301.03125,42.21875 301.03125,41.90625 C301.34375,41.8541667 301.708333,41.828125 302.125,41.828125 L302.125,41.828125 L302.125,45.734375 C302.072917,47.1927083 302.854167,47.8958333 304.46875,47.84375 L304.46875,47.84375 L305.796875,47.84375 C307.203125,47.9479167 308.010417,47.296875 308.21875,45.890625 C308.322917,45.578125 308.427083,45.0833333 308.53125,44.40625 L308.53125,44.40625 L308.53125,44.25 C308.270833,44.1458333 307.893229,44.015625 307.398438,43.859375 C306.903646,43.703125 306.5,43.5989583 306.1875,43.546875 C306.135417,44.2239583 306.03125,44.796875 305.875,45.265625 C305.822917,45.578125 305.666667,45.7213542 305.40625,45.6953125 C305.145833,45.6692708 305.015625,45.5 305.015625,45.1875 L305.015625,45.1875 L305.015625,41.671875 L305.015625,41.671875 L305.484375,41.671875 C305.588542,41.7760417 305.731771,41.9322917 305.914062,42.140625 C306.096354,42.3489583 306.213542,42.5052083 306.265625,42.609375 L306.265625,42.609375 L308.453125,41.125 C308.244792,40.9166667 307.90625,40.6041667 307.4375,40.1875 C306.1875,38.9895833 305.223958,38.1041667 304.546875,37.53125 L304.546875,37.53125 L308.140625,37.53125 L308.140625,35.578125 L303.765625,35.578125 C303.661458,35.0572917 303.53125,34.484375 303.375,33.859375 L303.375,33.859375 L299.859375,34.015625 C300.067708,34.5364583 300.25,35.0572917 300.40625,35.578125 L300.40625,35.578125 L296.109375,35.578125 L296.109375,37.53125 L298.84375,37.53125 C297.75,38.8333333 296.760417,39.6927083 295.875,40.109375 L295.875,40.109375 L296.734375,42.21875 C297.203125,42.1145833 297.671875,42.0625 298.140625,42.0625 C298.140625,42.21875 298.127604,42.4010417 298.101562,42.609375 C298.075521,42.8177083 298.0625,42.9739583 298.0625,43.078125 C298.0625,44.171875 297.489583,45.0052083 296.34375,45.578125 L296.34375,45.578125 L296.34375,44.71875 C295.666667,44.7708333 294.338542,44.8489583 292.359375,44.953125 C290.901042,45.109375 289.9375,45.1875 289.46875,45.1875 L289.46875,45.1875 L289.859375,47.453125 C290.432292,47.4010417 291.395833,47.296875 292.75,47.140625 C294.208333,46.984375 295.276042,46.8802083 295.953125,46.828125 C296.421875,47.453125 296.8125,47.8697917 297.125,48.078125 Z M290.484375,44.40625 C292.151042,44.1979167 293.973958,44.0416667 295.953125,43.9375 C295.953125,43.3125 296.005208,42.7395833 296.109375,42.21875 L296.109375,42.21875 L296.109375,41.984375 C295.848958,41.984375 295.40625,41.9973958 294.78125,42.0234375 C294.15625,42.0494792 293.739583,42.0885417 293.53125,42.140625 C293.583333,42.0885417 293.661458,42.0104167 293.765625,41.90625 C295.119792,40.2395833 296.213542,38.9114583 297.046875,37.921875 L297.046875,37.921875 L294.46875,37.0625 C294.260417,37.4791667 294.026042,37.84375 293.765625,38.15625 C293.609375,38.15625 293.375,38.1822917 293.0625,38.234375 L293.0625,38.234375 L292.671875,38.234375 C293.453125,37.2447917 294.390625,36.0989583 295.484375,34.796875 L295.484375,34.796875 L292.4375,33.859375 C291.239583,36.3072917 290.25,37.7916667 289.46875,38.3125 L289.46875,38.3125 L290.09375,40.34375 C290.875,40.2395833 291.604167,40.1875 292.28125,40.1875 C291.291667,41.3333333 290.484375,42.0364583 289.859375,42.296875 L289.859375,42.296875 L290.484375,44.40625 Z M299.703125,39.953125 C300.015625,39.6927083 300.119792,39.6145833 300.015625,39.71875 C301.057292,38.8333333 301.890625,38.1041667 302.515625,37.53125 L302.515625,37.53125 L304.3125,37.53125 L302.59375,38.703125 C302.697917,38.8072917 302.880208,38.9895833 303.140625,39.25 C303.401042,39.5104167 303.583333,39.71875 303.6875,39.875 C302.125,39.9270833 300.796875,39.953125 299.703125,39.953125 Z" id="path-5"></path>
        <filter x="-0.8%" y="-6.9%" width="101.5%" height="127.5%" filterUnits="objectBoundingBox" id="filter-6">
            <feOffset dx="0" dy="1" in="SourceAlpha" result="shadowOffsetOuter1"></feOffset>
            <feGaussianBlur stdDeviation="0.5" in="shadowOffsetOuter1" result="shadowBlurOuter1"></feGaussianBlur>
            <feColorMatrix values="0 0 0 0 0   0 0 0 0 0   0 0 0 0 0  0 0 0 0.5 0" type="matrix" in="shadowBlurOuter1"></feColorMatrix>
        </filter>
        <filter x="-13.9%" y="-13.9%" width="127.8%" height="127.8%" filterUnits="objectBoundingBox" id="filter-7">
            <feOffset dx="0" dy="1" in="SourceAlpha" result="shadowOffsetOuter1"></feOffset>
            <feGaussianBlur stdDeviation="0.5" in="shadowOffsetOuter1" result="shadowBlurOuter1"></feGaussianBlur>
            <feColorMatrix values="0 0 0 0 0   0 0 0 0 0   0 0 0 0 0  0 0 0 0.5 0" type="matrix" in="shadowBlurOuter1" result="shadowMatrixOuter1"></feColorMatrix>
            <feMerge>
                <feMergeNode in="shadowMatrixOuter1"></feMergeNode>
                <feMergeNode in="SourceGraphic"></feMergeNode>
            </feMerge>
        </filter>
        <linearGradient x1="50%" y1="0%" x2="50%" y2="100%" id="linearGradient-8">
            <stop stop-color="#00D2FF" offset="0%"></stop>
            <stop stop-color="#3A7BD5" offset="100%"></stop>
        </linearGradient>
    </defs>
    <g id="图标" stroke="none" stroke-width="1" fill="none" fill-rule="evenodd">
        <g id="图层备份-2" transform="translate(-8.000000, -11.000000)">
            <g id="logo" transform="translate(10.000000, 11.000000)">
                <g id="堵河流域" fill-rule="nonzero">
                    <use fill="black" fill-opacity="1" filter="url(#filter-3)" xlink:href="#path-2"></use>
                    <use fill="#FFFFFF" xlink:href="#path-2"></use>
                    <use fill="url(#linearGradient-1)" xlink:href="#path-2"></use>
                </g>
                <rect id="矩形" fill="#FFFFFF" opacity="0.649221" x="159" y="12" width="42" height="2"></rect>
                <g id="水库群防洪联合调度管控系统" fill-rule="nonzero">
                    <use fill="black" fill-opacity="1" filter="url(#filter-6)" xlink:href="#path-5"></use>
                    <use fill="#FFFFFF" xlink:href="#path-5"></use>
                    <use fill="url(#linearGradient-4)" xlink:href="#path-5"></use>
                </g>
                <g id="logo2" filter="url(#filter-7)" transform="translate(0.000000, 7.000000)" fill="url(#linearGradient-8)" stroke="#FFFFFF">
                    <path d="M32.908,12.646 L33.0720044,12.6854542 C33.8457804,12.8771749 34.6301733,13.1129205 35.4201233,13.3948053 C35.7985718,14.847963 36,16.3725767 36,17.9442364 C36,27.8853619 27.9411255,35.9442364 18,35.9442364 C9.11771915,35.9442364 1.73807996,29.5106627 0.266813294,21.0492461 C0.840409174,21.188832 1.61022753,21.3903616 2.53279479,21.537384 L2.672,21.558 L2.59393299,21.5470114 C4.19906769,28.4378964 10.3081676,33.5990092 17.6494947,33.7586116 L18,33.7624182 C26.7361406,33.7624182 33.8181818,26.680377 33.8181818,17.9442364 C33.8181818,16.0857696 33.4976812,14.3021596 32.9089365,12.6456632 L32.908,12.646 Z M4.778,21.726 L4.965,21.725 L5.205,21.721 L5.26923061,21.7203348 C5.29167456,21.7196187 5.31416177,21.7188437 5.33669193,21.718009 L5.204,21.721 L5.34563998,21.7176744 C5.40232528,21.7155356 5.45928188,21.7130185 5.51650473,21.7101096 L5.574,21.705 L5.54061429,21.7088616 C5.58731831,21.7064006 5.63419877,21.7036781 5.68125291,21.7006866 L5.574,21.705 L5.72594404,21.6977677 C5.80615013,21.6923899 5.88685602,21.6862276 5.96804825,21.6792448 L6.106,21.665 L6.37185748,21.6380528 L6.37185748,21.6380528 L6.48,21.623 L6.42721475,21.6313909 C6.44940175,21.6286715 6.47162175,21.6258885 6.49387447,21.6230413 L6.48,21.623 L6.54160103,21.6168428 C6.59369064,21.609977 6.64595784,21.6027582 6.69839935,21.5951777 L6.814,21.576 L6.75759499,21.5864777 C6.80586038,21.5792674 6.85427167,21.5717494 6.90282629,21.5639169 L6.818,21.575 L6.94867684,21.5564339 C6.99390464,21.5489669 7.03925567,21.5412262 7.08472787,21.5332063 L7.243,21.502 L7.16711077,21.518394 C7.20784145,21.5109309 7.24866774,21.5032425 7.28958821,21.495325 L7.243,21.502 L7.31345557,21.4906831 C7.37547206,21.4785595 7.43770381,21.4659088 7.50014578,21.4527175 L7.613,21.426 L7.56935163,21.437894 C7.60778609,21.4295484 7.64629911,21.4209972 7.6848895,21.4122371 L7.613,21.426 L7.70473005,21.4077165 C7.835061,21.3779097 7.96627104,21.3457185 8.09831525,21.3110223 C11.7563086,20.3498422 17.2175754,16.5308554 20.5113553,14.0944716 L20.752,13.923 L20.7186906,13.9463275 L20.7186906,13.9463275 L20.7396965,13.931878 L20.7396965,13.931878 L20.838,13.866 L20.8157578,13.8803742 C20.87844,13.8384494 20.9420447,13.7971758 21.006556,13.75656 L20.9332771,13.8032301 L20.9332771,13.8032301 L20.976785,13.7753912 L20.976785,13.7753912 L21.0238031,13.7457306 C21.1287433,13.6800159 21.236067,13.6160349 21.3457066,13.5538157 L21.3836414,13.5324103 L21.3836414,13.5324103 L21.453,13.494 L21.4151621,13.5148083 C21.5605114,13.4340233 21.7098351,13.3562909 21.8629797,13.2816752 L21.798,13.314 L21.8613238,13.2824822 L21.8613238,13.2824822 L21.947,13.241 L21.931166,13.2487798 C22.004138,13.2139224 22.0779598,13.1797644 22.1526152,13.1463127 L22.054,13.191 L22.1100579,13.1654993 L22.1100579,13.1654993 L22.1788797,13.1345885 C22.2005196,13.1249652 22.2222289,13.115401 22.2440073,13.1058961 L22.2869011,13.0872908 L22.2869011,13.0872908 L22.312,13.076 L22.2578661,13.0998597 C22.3318296,13.0677078 22.4065873,13.0362381 22.4821237,13.0054568 L22.312,13.076 L22.3651999,13.0539155 L22.3651999,13.0539155 L22.498322,12.9988714 C22.6067493,12.954893 22.7167744,12.9123299 22.8283522,12.871201 L22.775,12.891 L22.8656422,12.85753 L22.8656422,12.85753 L22.8941452,12.8471803 L22.8941452,12.8471803 L22.8855156,12.8503047 L23.1676674,12.7521463 C23.0755113,12.7828886 22.9843294,12.8145698 22.8941452,12.8471803 L23.1659859,12.7527074 L23.1659859,12.7527074 L23.2018839,12.74079 C23.2943614,12.7102533 23.3878119,12.6806585 23.482212,12.6520154 L23.457,12.659 L23.473396,12.654694 L23.473396,12.654694 L23.4963287,12.6477413 C23.5816655,12.6219598 23.6677757,12.5969549 23.7546421,12.5727337 L23.7321082,12.5790392 L23.7321082,12.5790392 L23.7876858,12.563568 L23.7876858,12.563568 L23.8268846,12.5528185 C23.8848322,12.5370261 23.943111,12.5215802 24.001716,12.5064827 L24.0227457,12.5010837 L24.0227457,12.5010837 L24.056,12.493 L24.1898433,12.4594875 L24.1898433,12.4594875 L24.175,12.463 L24.2362074,12.4483507 C24.2502657,12.4450001 24.2643418,12.4416693 24.2784357,12.4383581 L24.3188071,12.4289383 L24.3188071,12.4289383 L24.419,12.406 L24.3647978,12.4183653 C24.4115722,12.4076971 24.4585391,12.3972439 24.5056961,12.3870068 L24.461,12.397 L24.6201519,12.3626621 L24.6201519,12.3626621 L24.6406565,12.3584061 C24.7455641,12.3367125 24.8513871,12.3160766 24.9580994,12.2965091 L24.842,12.319 L24.9266396,12.3023135 L24.9266396,12.3023135 L25.002446,12.2884481 C25.0137708,12.2864076 25.0251056,12.2843791 25.0364502,12.2823626 L25.1099062,12.2694977 L25.1099062,12.2694977 L25.16,12.261 L25.0622062,12.2778082 C25.1679413,12.2592077 25.2745322,12.2416484 25.3819538,12.2251407 L25.351,12.23 L25.4557927,12.2139789 L25.4557927,12.2139789 L25.522,12.204 L25.4339224,12.2172464 C25.5347442,12.2021086 25.6362907,12.1878941 25.7385416,12.1746112 L25.645,12.187 L25.8074383,12.1658156 L25.8074383,12.1658156 L25.855,12.16 L25.8447701,12.1611782 C25.9496179,12.1482803 26.055192,12.1363557 26.1614708,12.1254137 L26.111,12.131 L26.1646561,12.1250861 L26.1646561,12.1250861 C26.1708896,12.1244466 26.1732449,12.1242056 26.1756006,12.1239652 L26.2012077,12.1213717 L26.2012077,12.1213717 L26.395,12.103 L26.228,12.119 L26.41238,12.1064507 C27.6735766,12.0540792 29.2035289,12.6160161 29.6800131,13.0102207 C30.1829687,13.4263256 31.2341099,14.4203671 31.440994,15.6311838 C31.5694508,16.3829937 31.6363636,17.1558009 31.6363636,17.9442364 C31.6363636,25.4753921 25.5311557,31.5806001 18,31.5806001 C11.7813232,31.5806001 6.53489268,27.4179185 4.89513632,21.7269831 L4.778,21.726 Z M30.4314084,4.92651175 C32.2856634,6.6977593 33.7620817,8.86119728 34.7275086,11.2836709 C33.4226932,10.3142323 31.1395927,9.71398529 27.8782071,9.48292981 C22.0491075,9.06996259 11.684863,16.6977339 9.11675122,18.3929236 C6.55389599,20.0846436 3.06466131,20.0250098 0.0187363248,18.7729084 C0.00629033986,18.4982434 0,18.2219745 0,17.9442364 C0,17.5884883 0.0103202101,17.2351506 0.0306775744,16.8845063 C1.26310726,17.0752159 2.84102606,17.8331197 6.46884881,16.8798672 C10.1268421,15.9186871 15.3778945,10.9656876 17.7522004,8.97937363 C20.0272319,7.07611141 26.5050363,4.55192282 30.4314084,4.92651175 Z M20.9630901,0.186958984 C23.3290646,0.57882399 25.5392417,1.43211163 27.4980654,2.65126592 C24.776684,3.05669152 22.5341861,3.62888535 20.7705714,4.36784742 C17.4778691,5.74750376 10.666427,11.9641567 8.09831525,13.6593465 C5.62897704,15.2893367 3.70769802,15.403897 0.715285757,15.4102981 L0.350951217,15.4106371 C0.291669207,15.4106371 0.233638953,15.4107676 0.176860456,15.4110285 C0.272143715,14.7345366 0.405032272,14.0701213 0.573343923,13.4199648 C1.8435723,13.4733405 3.72254029,13.1955375 5.91308826,12.406769 C8.46207561,11.4889344 13.7510491,5.60445096 16.125355,3.618137 C18.333805,1.77057596 19.6580856,1.22406814 20.9630901,0.186958984 Z M16.5726587,-1.0658141e-14 C14.584756,0.935006076 8.71288075,7.70798695 6.98852187,9.50128475 C5.81213412,10.7247038 3.80629025,11.6931986 0.970990253,12.406769 L0.867830999,12.406769 C3.06343187,5.60884013 9.19266965,0.578955243 16.5726587,-1.0658141e-14 Z" id="形状结合"></path>
                </g>
            </g>
        </g>
    </g>
</svg>